<svg width="300" height="300" viewBox="0 0 300 300" xmlns="http://www.w3.org/2000/svg">

<defs>
  <clipPath id="pdfClip2">
    <rect x="0" y="0" width="300" height="300" rx="60" ry="60"/>
  </clipPath>
</defs>

<rect x="0" y="0" width="300" height="300" rx="60" ry="60" fill="#7f1d1d"/>

<g clip-path="url(#pdfClip2)">

  <circle cx="240" cy="300" r="160" fill="#991b1b"/>
  <circle cx="20" cy="40" r="100" fill="#6b1a1a"/>

  <!-- Back page -->
  <rect x="25" y="55" width="145" height="185" rx="10" fill="#fca5a5"/>
  <polygon points="140,55 170,55 170,85" fill="#f87171"/>
  <rect x="140" y="55" width="30" height="30" fill="#fca5a5"/>
  <polygon points="140,55 170,85 140,85" fill="#ef4444"/>

  <!-- Middle page -->
  <rect x="45" y="38" width="145" height="185" rx="10" fill="#fecaca"/>
  <polygon points="160,38 190,38 190,68" fill="#fca5a5"/>
  <rect x="160" y="38" width="30" height="30" fill="#fecaca"/>
  <polygon points="160,38 190,68 160,68" fill="#f87171"/>

  <!-- Front page -->
  <rect x="65" y="22" width="145" height="185" rx="10" fill="#fff1f2"/>
  <polygon points="180,22 210,22 210,52" fill="#fecaca"/>
  <rect x="180" y="22" width="30" height="30" fill="#fff1f2"/>
  <polygon points="180,22 210,52 180,52" fill="#fca5a5"/>

  <!-- Text lines on front page -->
  <rect x="82" y="70" width="90" height="7" rx="3" fill="#fca5a5"/>
  <rect x="82" y="87" width="108" height="7" rx="3" fill="#fca5a5"/>
  <rect x="82" y="104" width="78" height="7" rx="3" fill="#fca5a5"/>
  <rect x="82" y="121" width="100" height="7" rx="3" fill="#fca5a5"/>
  <rect x="82" y="138" width="60" height="7" rx="3" fill="#fca5a5"/>

  <!-- PENCIL top right -->
  <rect x="168" y="148" width="22" height="82" rx="4" fill="#fbbf24" transform="rotate(-38 168 148)"/>
  <polygon points="148,206 158,228 168,206" fill="#f59e0b" transform="rotate(-38 158 217)"/>
  <polygon points="153,218 158,232 163,218" fill="#1c1917" transform="rotate(-38 158 225)"/>
  <rect x="168" y="143" width="22" height="12" rx="4" fill="#fb7185" transform="rotate(-38 168 143)"/>
  <line x1="210" y1="128" x2="222" y2="116" stroke="#fbbf24" stroke-width="3" stroke-linecap="round"/>
  <line x1="218" y1="142" x2="234" y2="138" stroke="#fbbf24" stroke-width="3" stroke-linecap="round"/>
  <line x1="204" y1="114" x2="204" y2="100" stroke="#fbbf24" stroke-width="3" stroke-linecap="round"/>

  <!-- SCISSORS bottom left -->
  <circle cx="44" cy="242" r="6" fill="#e2e8f0"/>
  <line x1="44" y1="242" x2="20" y2="210" stroke="#e2e8f0" stroke-width="6" stroke-linecap="round"/>
  <line x1="44" y1="242" x2="28" y2="204" stroke="#cbd5e1" stroke-width="6" stroke-linecap="round"/>
  <circle cx="32" cy="268" r="11" fill="none" stroke="#e2e8f0" stroke-width="5"/>
  <circle cx="54" cy="272" r="11" fill="none" stroke="#cbd5e1" stroke-width="5"/>
  <line x1="44" y1="242" x2="38" y2="258" stroke="#e2e8f0" stroke-width="5" stroke-linecap="round"/>
  <line x1="44" y1="242" x2="48" y2="261" stroke="#cbd5e1" stroke-width="5" stroke-linecap="round"/>

  <!-- MAGIC WAND -->
  <line x1="68" y1="285" x2="108" y2="235" stroke="#c4b5fd" stroke-width="5" stroke-linecap="round"/>
  <circle cx="110" cy="233" r="7" fill="#a78bfa"/>
  <line x1="110" y1="220" x2="110" y2="213" stroke="#e9d5ff" stroke-width="2.5" stroke-linecap="round"/>
  <line x1="121" y1="224" x2="127" y2="218" stroke="#e9d5ff" stroke-width="2.5" stroke-linecap="round"/>
  <line x1="123" y1="235" x2="130" y2="235" stroke="#e9d5ff" stroke-width="2.5" stroke-linecap="round"/>
  <line x1="99" y1="224" x2="93" y2="218" stroke="#e9d5ff" stroke-width="2.5" stroke-linecap="round"/>
  <line x1="97" y1="235" x2="90" y2="235" stroke="#e9d5ff" stroke-width="2.5" stroke-linecap="round"/>
  <circle cx="128" cy="248" r="3" fill="#c4b5fd"/>
  <circle cx="82" cy="222" r="2.5" fill="#c4b5fd"/>
  <circle cx="118" cy="216" r="2" fill="#e9d5ff"/>

</g>

</svg>
